<svg width="43" height="52" xmlns="http://www.w3.org/2000/svg"><path d="M21.5 52a1.425 1.425 0 01-1.01-.436L6.295 37.19c-8.395-8.509-8.395-22.301 0-30.81a21.306 21.306 0 0130.408 0c8.395 8.509 8.395 22.301 0 30.81L22.51 51.564c-.267.276-.63.432-1.011.436zm0-22.225c2.281 0 4.47-.919 6.082-2.553a8.775 8.775 0 002.52-6.163c0-4.814-3.851-8.716-8.602-8.716-4.75 0-8.602 3.902-8.602 8.716 0 4.813 3.851 8.716 8.602 8.716zm0-14.527c3.167 0 5.735 2.602 5.735 5.81 0 2.35-1.398 4.47-3.54 5.369a5.68 5.68 0 01-6.25-1.26 5.867 5.867 0 01-1.243-6.332c.888-2.171 2.979-3.587 5.298-3.587z" fill="#4359FF"/></svg>