<?xml version="1.0" encoding="UTF-8"?>
<svg width="43px" height="52px" viewBox="0 0 43 52" version="1.1" xmlns="http://www.w3.org/2000/svg" xmlns:xlink="http://www.w3.org/1999/xlink">
    <!-- Generator: Sketch 52.5 (67469) - http://www.bohemiancoding.com/sketch -->
    <title>定位</title>
    <desc>Created with Sketch.</desc>
    <g id="Page-1" stroke="none" stroke-width="1" fill="none" fill-rule="evenodd">
        <g id="关于同保呗" transform="translate(-1204.000000, -1987.000000)" fill="#4359FF" fill-rule="nonzero">
            <g id="联系我们" transform="translate(0.000000, 1617.000000)">
                <g id="分组-3" transform="translate(858.000000, 205.000000)">
                    <g id="定位" transform="translate(346.000000, 165.000000)">
                        <path d="M21.5,52 C21.1193563,51.9964576 20.7557299,51.8396718 20.4892842,51.5642068 L6.29625331,37.190295 C-2.0987511,28.6814364 -2.0987511,14.8885757 6.29625331,6.37971701 C14.6937934,-2.12657234 28.3062066,-2.12657234 36.7037467,6.37971701 C45.0987511,14.8885757 45.0987511,28.6814364 36.7037467,37.190295 L22.5107158,51.5642068 C22.2442701,51.8396718 21.8806437,51.9964576 21.5,52 Z M21.5,29.7745477 C23.781349,29.7745477 25.9692599,28.8562718 27.5824172,27.2217303 C29.1955746,25.5871888 30.1018369,23.3702748 30.1018369,21.058684 C30.1018369,16.2450454 26.2506633,12.3428204 21.5,12.3428204 C16.7493367,12.3428204 12.8981631,16.2450454 12.8981631,21.058684 C12.8981631,25.8723226 16.7493367,29.7745477 21.5,29.7745477 Z M21.5,15.2481083 C24.6671089,15.2481083 27.2345579,17.8495916 27.2345579,21.058684 C27.234558,23.4088425 25.8373778,25.5275893 23.6945204,26.4269561 C21.5516629,27.3263228 19.0851273,26.8291946 17.4450552,25.1673816 C15.8049831,23.5055686 15.3143587,21.0063364 16.2019593,18.835073 C17.0895599,16.6638096 19.1805878,15.2481083 21.5,15.2481083 Z" id="合并形状"></path>
                    </g>
                </g>
            </g>
        </g>
    </g>
</svg>